<mxfile host="65bd71144e" scale="2" border="0">
    <diagram name="Page-1" id="1QJ3ojfXV47My5qo5HPt">
        <mxGraphModel dx="689" dy="553" grid="1" gridSize="10" guides="1" tooltips="1" connect="1" arrows="1" fold="1" page="1" pageScale="1" pageWidth="850" pageHeight="1100" math="0" shadow="0">
            <root>
                <mxCell id="0"/>
                <mxCell id="1" parent="0"/>
                <mxCell id="-qO422OTfceK4YMZ6_Ft-2" value="" style="rounded=1;whiteSpace=wrap;html=1;fillColor=#ffe6cc;strokeColor=#d79b00;" parent="1" vertex="1">
                    <mxGeometry x="130" y="340" width="120" height="290" as="geometry"/>
                </mxCell>
                <mxCell id="-qO422OTfceK4YMZ6_Ft-3" value="" style="rounded=1;whiteSpace=wrap;html=1;fillColor=#ffe6cc;strokeColor=#d79b00;" parent="1" vertex="1">
                    <mxGeometry x="330" y="340" width="120" height="290" as="geometry"/>
                </mxCell>
                <mxCell id="-qO422OTfceK4YMZ6_Ft-4" value="" style="rounded=1;whiteSpace=wrap;html=1;fillColor=#ffe6cc;strokeColor=#d79b00;" parent="1" vertex="1">
                    <mxGeometry x="530" y="340" width="120" height="290" as="geometry"/>
                </mxCell>
                <mxCell id="-qO422OTfceK4YMZ6_Ft-5" value="&lt;b&gt;VIP&lt;/b&gt;" style="rhombus;whiteSpace=wrap;html=1;fillColor=#dae8fc;strokeColor=#6c8ebf;" parent="1" vertex="1">
                    <mxGeometry x="310" y="160" width="160" height="80" as="geometry"/>
                </mxCell>
                <mxCell id="-qO422OTfceK4YMZ6_Ft-11" value="" style="endArrow=none;html=1;rounded=0;fontStyle=2;entryX=0.5;entryY=0;entryDx=0;entryDy=0;dashed=1;" parent="1" source="-qO422OTfceK4YMZ6_Ft-5" target="-qO422OTfceK4YMZ6_Ft-4" edge="1">
                    <mxGeometry width="50" height="50" relative="1" as="geometry">
                        <mxPoint x="400" y="480" as="sourcePoint"/>
                        <mxPoint x="500" y="480" as="targetPoint"/>
                    </mxGeometry>
                </mxCell>
                <mxCell id="-qO422OTfceK4YMZ6_Ft-12" value="&lt;div&gt;Add to Queue&lt;/div&gt;" style="endArrow=none;html=1;rounded=0;entryX=0.5;entryY=1;entryDx=0;entryDy=0;exitX=0.5;exitY=0;exitDx=0;exitDy=0;startArrow=classic;startFill=1;" parent="1" source="-qO422OTfceK4YMZ6_Ft-3" target="-qO422OTfceK4YMZ6_Ft-5" edge="1">
                    <mxGeometry width="50" height="50" relative="1" as="geometry">
                        <mxPoint x="400" y="480" as="sourcePoint"/>
                        <mxPoint x="450" y="430" as="targetPoint"/>
                    </mxGeometry>
                </mxCell>
                <mxCell id="-qO422OTfceK4YMZ6_Ft-13" value="" style="endArrow=none;html=1;rounded=0;entryX=0.22;entryY=0.7;entryDx=0;entryDy=0;entryPerimeter=0;exitX=0.5;exitY=0;exitDx=0;exitDy=0;dashed=1;" parent="1" source="-qO422OTfceK4YMZ6_Ft-2" target="-qO422OTfceK4YMZ6_Ft-5" edge="1">
                    <mxGeometry width="50" height="50" relative="1" as="geometry">
                        <mxPoint x="400" y="480" as="sourcePoint"/>
                        <mxPoint x="450" y="430" as="targetPoint"/>
                    </mxGeometry>
                </mxCell>
                <mxCell id="-qO422OTfceK4YMZ6_Ft-14" value="Keepalived" style="rounded=1;whiteSpace=wrap;html=1;fillColor=#d5e8d4;strokeColor=#82b366;" parent="1" vertex="1">
                    <mxGeometry x="140" y="360" width="100" height="30" as="geometry"/>
                </mxCell>
                <mxCell id="-qO422OTfceK4YMZ6_Ft-15" value="Keepalived" style="rounded=1;whiteSpace=wrap;html=1;fillColor=#d5e8d4;strokeColor=#82b366;" parent="1" vertex="1">
                    <mxGeometry x="340" y="360" width="100" height="30" as="geometry"/>
                </mxCell>
                <mxCell id="-qO422OTfceK4YMZ6_Ft-16" value="Keepalived" style="rounded=1;whiteSpace=wrap;html=1;fillColor=#d5e8d4;strokeColor=#82b366;" parent="1" vertex="1">
                    <mxGeometry x="540" y="360" width="100" height="30" as="geometry"/>
                </mxCell>
                <mxCell id="-qO422OTfceK4YMZ6_Ft-19" value="&lt;div align=&quot;center&quot;&gt;RabbitMQ - Quorum Queue&lt;h1 style=&quot;box-sizing: border-box; color: rgb(28, 30, 33); font-family: Raleway; font-weight: 700; line-height: 1.25; margin: 0px 0px 25px; --ifm-h1-font-size: 3rem; font-style: normal; font-variant-ligatures: normal; font-variant-caps: normal; letter-spacing: normal; text-align: start; text-indent: 0px; text-transform: none; word-spacing: 0px; -webkit-text-stroke-width: 0px; white-space: normal; text-decoration-thickness: initial; text-decoration-style: initial; text-decoration-color: initial;&quot;&gt;&lt;br&gt;&lt;/h1&gt; &lt;br&gt;&lt;h1 style=&quot;box-sizing: border-box; color: rgb(28, 30, 33); font-family: Raleway; font-weight: 700; line-height: 1.25; margin: 0px 0px 25px; --ifm-h1-font-size: 3rem; font-style: normal; font-variant-ligatures: normal; font-variant-caps: normal; letter-spacing: normal; text-align: start; text-indent: 0px; text-transform: none; word-spacing: 0px; -webkit-text-stroke-width: 0px; white-space: normal; text-decoration-thickness: initial; text-decoration-style: initial; text-decoration-color: initial;&quot;&gt;&lt;br&gt;&lt;/h1&gt;&lt;/div&gt;&lt;div align=&quot;center&quot;&gt;&lt;br&gt;&lt;/div&gt;&lt;div align=&quot;center&quot;&gt;&lt;br&gt;&lt;/div&gt;" style="rounded=1;whiteSpace=wrap;html=1;fillColor=#f8cecc;strokeColor=#b85450;align=center;verticalAlign=top;" parent="1" vertex="1">
                    <mxGeometry x="140" y="410" width="500" height="90" as="geometry"/>
                </mxCell>
                <mxCell id="-qO422OTfceK4YMZ6_Ft-20" value="Celery Worker Node" style="whiteSpace=wrap;html=1;aspect=fixed;fillColor=#fff2cc;strokeColor=#d6b656;verticalAlign=bottom;spacing=5;" parent="1" vertex="1">
                    <mxGeometry x="350" y="530" width="80" height="80" as="geometry"/>
                </mxCell>
                <mxCell id="-qO422OTfceK4YMZ6_Ft-21" value="&lt;div&gt;Celery Worker Node&lt;/div&gt;" style="whiteSpace=wrap;html=1;aspect=fixed;fillColor=#fff2cc;strokeColor=#d6b656;verticalAlign=bottom;spacing=5;" parent="1" vertex="1">
                    <mxGeometry x="550" y="530" width="80" height="80" as="geometry"/>
                </mxCell>
                <mxCell id="-qO422OTfceK4YMZ6_Ft-22" value="Celery Worker Node" style="whiteSpace=wrap;html=1;aspect=fixed;fillColor=#fff2cc;strokeColor=#d6b656;verticalAlign=bottom;spacing=5;" parent="1" vertex="1">
                    <mxGeometry x="150" y="530" width="80" height="80" as="geometry"/>
                </mxCell>
                <mxCell id="2Z6oZ40TyXbIifYb6Xwr-1" value="" style="rounded=1;whiteSpace=wrap;html=1;" parent="1" vertex="1">
                    <mxGeometry x="175" y="440" width="430" height="45" as="geometry"/>
                </mxCell>
                <mxCell id="2Z6oZ40TyXbIifYb6Xwr-5" value="Client" style="whiteSpace=wrap;html=1;aspect=fixed;fillColor=#ffe6cc;strokeColor=#d79b00;" parent="1" vertex="1">
                    <mxGeometry x="350" y="20" width="80" height="80" as="geometry"/>
                </mxCell>
                <mxCell id="2Z6oZ40TyXbIifYb6Xwr-6" value="" style="endArrow=none;html=1;rounded=0;entryX=0.5;entryY=1;entryDx=0;entryDy=0;startArrow=classic;startFill=1;" parent="1" source="-qO422OTfceK4YMZ6_Ft-5" target="2Z6oZ40TyXbIifYb6Xwr-5" edge="1">
                    <mxGeometry width="50" height="50" relative="1" as="geometry">
                        <mxPoint x="500" y="330" as="sourcePoint"/>
                        <mxPoint x="550" y="280" as="targetPoint"/>
                    </mxGeometry>
                </mxCell>
                <mxCell id="2Z6oZ40TyXbIifYb6Xwr-9" value="&lt;font style=&quot;font-size: 10px;&quot;&gt;Running&lt;/font&gt;" style="rounded=0;whiteSpace=wrap;html=1;fillColor=#d5e8d4;strokeColor=#82b366;" parent="1" vertex="1">
                    <mxGeometry x="190" y="452.5" width="60" height="20" as="geometry"/>
                </mxCell>
                <mxCell id="2Z6oZ40TyXbIifYb6Xwr-18" value="" style="endArrow=classic;startArrow=classic;html=1;rounded=0;exitX=0.5;exitY=0;exitDx=0;exitDy=0;" parent="1" target="2Z6oZ40TyXbIifYb6Xwr-9" edge="1" source="3">
                    <mxGeometry width="50" height="50" relative="1" as="geometry">
                        <mxPoint x="190" y="530" as="sourcePoint"/>
                        <mxPoint x="340" y="450" as="targetPoint"/>
                    </mxGeometry>
                </mxCell>
                <mxCell id="2Z6oZ40TyXbIifYb6Xwr-21" value="&lt;div&gt;Remove&lt;/div&gt;" style="endArrow=classic;html=1;rounded=0;exitX=0.5;exitY=0;exitDx=0;exitDy=0;entryX=0.75;entryY=1;entryDx=0;entryDy=0;" parent="1" source="5" edge="1" target="4">
                    <mxGeometry width="50" height="50" relative="1" as="geometry">
                        <mxPoint x="300" y="520" as="sourcePoint"/>
                        <mxPoint x="350" y="470" as="targetPoint"/>
                    </mxGeometry>
                </mxCell>
                <mxCell id="2Z6oZ40TyXbIifYb6Xwr-22" value="&lt;div&gt;Get Latest Task&lt;/div&gt;" style="endArrow=classic;html=1;rounded=0;entryX=0.5;entryY=1;entryDx=0;entryDy=0;exitX=0.5;exitY=0;exitDx=0;exitDy=0;" parent="1" source="-qO422OTfceK4YMZ6_Ft-21" target="8" edge="1">
                    <mxGeometry width="50" height="50" relative="1" as="geometry">
                        <mxPoint x="480" y="550" as="sourcePoint"/>
                        <mxPoint x="485" y="470.0000000000001" as="targetPoint"/>
                    </mxGeometry>
                </mxCell>
                <mxCell id="3" value="&lt;font style=&quot;font-size: 10px;&quot;&gt;Running&lt;/font&gt;" style="rounded=0;whiteSpace=wrap;html=1;fillColor=#d5e8d4;strokeColor=#82b366;" vertex="1" parent="1">
                    <mxGeometry x="160" y="540" width="60" height="20" as="geometry"/>
                </mxCell>
                <mxCell id="4" value="&lt;font style=&quot;font-size: 10px;&quot;&gt;Finished&lt;/font&gt;" style="rounded=0;whiteSpace=wrap;html=1;fillColor=#f8cecc;strokeColor=#b85450;" vertex="1" parent="1">
                    <mxGeometry x="260" y="452.5" width="60" height="20" as="geometry"/>
                </mxCell>
                <mxCell id="5" value="&lt;font style=&quot;font-size: 10px;&quot;&gt;Finished&lt;/font&gt;" style="rounded=0;whiteSpace=wrap;html=1;fillColor=#f8cecc;strokeColor=#b85450;" vertex="1" parent="1">
                    <mxGeometry x="360" y="540" width="60" height="20" as="geometry"/>
                </mxCell>
                <mxCell id="6" value="&lt;font style=&quot;font-size: 10px;&quot;&gt;Task&lt;/font&gt;" style="rounded=0;whiteSpace=wrap;html=1;fillColor=#e1d5e7;strokeColor=#9673a6;" vertex="1" parent="1">
                    <mxGeometry x="330" y="452.5" width="60" height="20" as="geometry"/>
                </mxCell>
                <mxCell id="7" value="&lt;font style=&quot;font-size: 10px;&quot;&gt;Task&lt;/font&gt;" style="rounded=0;whiteSpace=wrap;html=1;fillColor=#e1d5e7;strokeColor=#9673a6;" vertex="1" parent="1">
                    <mxGeometry x="400" y="452.5" width="60" height="20" as="geometry"/>
                </mxCell>
                <mxCell id="8" value="&lt;font style=&quot;font-size: 10px;&quot;&gt;Task&lt;/font&gt;" style="rounded=0;whiteSpace=wrap;html=1;fillColor=#e1d5e7;strokeColor=#9673a6;" vertex="1" parent="1">
                    <mxGeometry x="470" y="452.5" width="60" height="20" as="geometry"/>
                </mxCell>
                <mxCell id="9" value="&lt;font style=&quot;font-size: 10px;&quot;&gt;Task&lt;/font&gt;" style="rounded=0;whiteSpace=wrap;html=1;fillColor=#e1d5e7;strokeColor=#9673a6;" vertex="1" parent="1">
                    <mxGeometry x="360" y="260" width="60" height="20" as="geometry"/>
                </mxCell>
                <mxCell id="12" value="&lt;font style=&quot;font-size: 10px;&quot;&gt;Task&lt;/font&gt;" style="rounded=0;whiteSpace=wrap;html=1;fillColor=#e1d5e7;strokeColor=#9673a6;" vertex="1" parent="1">
                    <mxGeometry x="360" y="120" width="60" height="20" as="geometry"/>
                </mxCell>
            </root>
        </mxGraphModel>
    </diagram>
</mxfile>